
  <svg
    xmlns="http://www.w3.org/2000/svg"
    xmlns:xlink="http://www.w3.org/1999/xlink"
    viewBox="0 0 137 56.261"

  >
    <defs>
      <linearGradient
        id="a"
        x1=".283"
        y1=".509"
        x2=".739"
        y2=".594"
        gradientUnits="objectBoundingBox"
      >
        <stop offset=".005" stop-color="#ce303f" />
        <stop offset=".999" stop-color="#d92d48" />
      </linearGradient>
      <linearGradient
        id="b"
        x1=".615"
        y1=".663"
        x2="2.782"
        y2="9.419"
        gradientUnits="objectBoundingBox"
      >
        <stop offset=".002" stop-color="#f48245" />
        <stop offset=".999" stop-color="#ec174c" />
      </linearGradient>
      <linearGradient
        id="c"
        x1="-.212"
        y1="-.057"
        x2=".432"
        y2=".664"
        xlink:href="#b"
      />
      <linearGradient
        id="d"
        x1="-99.91"
        y1="122.806"
        x2="-101.508"
        y2="119.154"
        gradientUnits="objectBoundingBox"
      >
        <stop offset=".001" stop-color="#ffc75c" />
        <stop offset="1" stop-color="#d91d52" />
      </linearGradient>
      <linearGradient
        id="e"
        x1="-99.979"
        y1="86.625"
        x2="-101.564"
        y2="84.123"
        gradientUnits="objectBoundingBox"
      >
        <stop offset=".001" stop-color="#fbb349" />
        <stop offset="1" stop-color="#d91d52" />
      </linearGradient>
      <linearGradient
        id="f"
        x1=".285"
        y1="-.102"
        x2="1.386"
        y2="1.701"
        xlink:href="#b"
      />
      <linearGradient
        id="g"
        x1="-1.589"
        y1="-2.036"
        x2="1.026"
        y2="1.137"
        xlink:href="#b"
      />
      <linearGradient
        id="h"
        x1=".252"
        y1=".48"
        x2=".788"
        y2=".624"
        gradientUnits="objectBoundingBox"
      >
        <stop offset="0" stop-color="#582d82" />
        <stop offset=".999" stop-color="#7c498b" />
      </linearGradient>
      <linearGradient
        id="i"
        x1=".733"
        y1=".873"
        x2="2.697"
        y2="5.443"
        xlink:href="#b"
      />
      <linearGradient
        id="j"
        x1="-67.186"
        y1="43.899"
        x2="-68.27"
        y2="42.618"
        xlink:href="#d"
      />
      <linearGradient
        id="k"
        x1="-67.489"
        y1="42.31"
        x2="-68.634"
        y2="43.606"
        gradientUnits="objectBoundingBox"
      >
        <stop offset=".005" stop-color="#783854" />
        <stop offset=".999" stop-color="#a03f4d" />
      </linearGradient>
      <linearGradient
        id="l"
        x1=".115"
        y1=".056"
        x2="1.023"
        y2="1.164"
        xlink:href="#b"
      />
      <linearGradient
        id="m"
        x1="-68.782"
        y1="40.363"
        x2="-69.88"
        y2="39.189"
        xlink:href="#d"
      />
      <linearGradient
        id="n"
        x1="-.117"
        y1=".351"
        x2=".959"
        y2=".717"
        gradientUnits="objectBoundingBox"
      >
        <stop offset=".005" stop-color="#873c3d" />
        <stop offset=".999" stop-color="#b7383a" />
      </linearGradient>
    </defs>
    <path
      d="M395.9 78.357l8.985-2.9-4.859-4.557-.4 2.842z"
      transform="translate(-276.014 -51.281)"
      fill="url(#a)"
    />
    <path
      fill="#3f4343"
      d="M19.589 54.855l1.956-5.684a4.957 4.957 0 01-.7.031h-1.409a2.691 2.691 0 01-.52-.061l-4.339-14.792a17.815 17.815 0 012.17-.183 12.46 12.46 0 012.048.153l3.209 12.927 3.484-12.835a10.35 10.35 0 011.956-.183 10.834 10.834 0 012.109.183l-6.326 20.445a10.612 10.612 0 01-3.638-.001zM50.729 43.059a3.08 3.08 0 001.192 2.475 4.84 4.84 0 002.873.764 11.176 11.176 0 001.986-.183 12.71 12.71 0 001.925-.52 5.848 5.848 0 01.55 1.375 6.091 6.091 0 01.244 1.711 13.855 13.855 0 01-5.042.856 9.578 9.578 0 01-3.545-.581 6.4 6.4 0 01-2.414-1.589 6.479 6.479 0 01-1.375-2.414 10.416 10.416 0 010-6.112 7.445 7.445 0 011.345-2.475 6.823 6.823 0 012.231-1.681 7.515 7.515 0 013.087-.611 6.5 6.5 0 012.75.55 6.224 6.224 0 012.048 1.5 6.988 6.988 0 011.284 2.231 9.137 9.137 0 01.428 2.781c0 .367 0 .733-.031 1.07a14.85 14.85 0 01-.092.856H50.73zm5.806-2.842a3.532 3.532 0 00-.764-2.2 2.452 2.452 0 00-1.956-.856 2.861 2.861 0 00-2.17.795 3.735 3.735 0 00-.886 2.261zM66.467 34.41v2.109a8.35 8.35 0 011.528-1.589 3.72 3.72 0 012.292-.7 5.669 5.669 0 01.672.031 5.025 5.025 0 01.55.092c.031.183.061.4.092.672a6.39 6.39 0 01.031.764c0 .336 0 .672-.031 1.07-.031.367-.092.733-.153 1.1a5.015 5.015 0 00-.7-.061h-.458a7.6 7.6 0 00-1.1.092 2.387 2.387 0 00-1.131.52 2.844 2.844 0 00-.947 1.222 6.106 6.106 0 00-.52 2.475v7.02a7.672 7.672 0 01-.825.122c-.336.031-.672.031-1.008.031s-.642 0-.978-.031-.672-.061-1.039-.122V34.441a11.464 11.464 0 013.725-.031zM43.215 35.449a4.92 4.92 0 00-3.789-1.375 4.606 4.606 0 00-1.467.214 7.094 7.094 0 00-1.192.55 3.811 3.811 0 00-.917.764 5.481 5.481 0 00-.672.856v.031-2.109a11.1 11.1 0 00-3.759 0v14.794a11.512 11.512 0 002.017.183 11.254 11.254 0 002.017-.183v-7.732a6.943 6.943 0 01.244-1.956 3.234 3.234 0 01.672-1.161 2.053 2.053 0 01.917-.55 3.843 3.843 0 011.008-.153 1.752 1.752 0 011.65.825 5 5 0 01.458 2.384v8.343a11.512 11.512 0 002.017.183 11.254 11.254 0 002.017-.183v-9.443a5.836 5.836 0 00-1.221-4.282zM87.768 34.38a2.609 2.609 0 00-2.384.031 4.5 4.5 0 00-1.375 1.253 6.509 6.509 0 00-1.986-1.131 7.3 7.3 0 00-2.628-.458 7.788 7.788 0 00-2.628.4 6.2 6.2 0 00-1.986 1.1 4.74 4.74 0 00-1.253 1.65 5.156 5.156 0 00-.428 2.078 4.88 4.88 0 00.55 2.292 5.266 5.266 0 001.559 1.742 5.517 5.517 0 00-1.345 1.314 3.114 3.114 0 00-.458 1.772 2.545 2.545 0 00.4 1.5 2.908 2.908 0 001.039.978 6.442 6.442 0 00-1.65 1.467 3.518 3.518 0 00-.611 2.109 3.647 3.647 0 00.336 1.559 2.576 2.576 0 001.1 1.192 6.078 6.078 0 001.956.764 13.183 13.183 0 002.9.275 13.582 13.582 0 003.209-.367 8.885 8.885 0 002.567-1.07 5.3 5.3 0 001.711-1.681 4.376 4.376 0 00-.581-5.317 5.808 5.808 0 00-3.82-1.161l-3.912-.061a2.12 2.12 0 01-1.222-.306.906.906 0 01-.306-.733 1.848 1.848 0 01.122-.672 1.249 1.249 0 01.611-.672 8.082 8.082 0 002.2.244 7.911 7.911 0 002.628-.4 6.044 6.044 0 001.956-1.1 4.658 4.658 0 001.222-1.65 5.155 5.155 0 00.428-2.078 4.913 4.913 0 00-.122-1.07 7.233 7.233 0 00-.611-1.345 3.284 3.284 0 01.7-1.222 1.724 1.724 0 01-.031.214 1.65 1.65 0 003.3 0 1.976 1.976 0 00-1.157-1.44zM76.522 50.302a1.63 1.63 0 01.672-.458 2.572 2.572 0 011.039-.153l2.995.061a2.544 2.544 0 01.947.153 1.243 1.243 0 01.55.367 1.824 1.824 0 01.275.458 1.692 1.692 0 01.061.55 1.767 1.767 0 01-1.1 1.559 6.527 6.527 0 01-2.9.581 4.972 4.972 0 01-2.2-.4 1.443 1.443 0 01-.825-1.467 2.326 2.326 0 01.092-.642 2.111 2.111 0 01.394-.61zm4.584-9.076a2.052 2.052 0 01-1.742.672 2.117 2.117 0 01-1.772-.672 3.538 3.538 0 010-3.789 2.129 2.129 0 011.772-.7 2.1 2.1 0 011.742.7 2.969 2.969 0 01.52 1.895 2.8 2.8 0 01-.52 1.893zM13.966 43.059c0-2.659-.917-4.248-3.7-5.531l-2.72-1.192c-1.528-.672-2.75-1.192-2.75-2.475 0-1.253.978-2.017 2.6-2.017a6.078 6.078 0 013.973 1.589 7.589 7.589 0 001.192-1.222 6.966 6.966 0 00.825-1.5A8.393 8.393 0 007.4 28.085c-3.789-.031-6.662 2.567-6.662 6.02 0 3.362 2.6 4.676 4 5.287l2.72 1.253c1.589.7 2.567 1.314 2.506 2.75-.061 1.375-1.131 2.2-2.934 2.2a7.329 7.329 0 01-4.706-2.139 12.8 12.8 0 00-1.345 1.436 12.876 12.876 0 00-.978 1.559 9.9 9.9 0 006.907 2.9c4.858.034 7.058-3.236 7.058-6.292zM94.583 54.855l1.956-5.684a4.957 4.957 0 01-.7.031h-1.406a2.691 2.691 0 01-.52-.061l-4.34-14.791a17.815 17.815 0 012.17-.183 12.46 12.46 0 012.048.153L97 47.247l3.484-12.9a10.349 10.349 0 011.956-.183 10.833 10.833 0 012.109.183l-6.326 20.506a10.612 10.612 0 01-3.64.002z"
    />
    <path
      d="M365.384 28.308L358.6 27.3l3.27 2.536z"
      transform="translate(-250.112 -21.005)"
      fill="url(#b)"
    />
    <path
      d="M400.028 60.522L388.14 45.7l-1.1 7.7 4.859 4.553-8.985 2.9-5.623 7-.091 8.647z"
      transform="translate(-263.028 -33.782)"
      fill="url(#c)"
    />
    <path
      d="M341.2 97.1l11.093 6.448.031-5.2z"
      transform="translate(-238.03 -69.474)"
      fill="url(#d)"
    />
    <path
      d="M390.64 24.312l1.375-9.412-11.215 4.8 7 1.039z"
      transform="translate(-265.528 -12.394)"
      fill="url(#e)"
    />
    <path
      d="M375.84 37.2l5.715 5.715 1.1-7.7-2.842-3.576-7-1.039-3.513 1.528z"
      transform="translate(-257.542 -23.296)"
      fill="url(#f)"
    />
    <path
      d="M118.298 13.904l5.715 5.715 1.1-7.7-2.842-3.576-7-1.039-3.513 1.528z"
      fill="#e35a41"
    />
    <path
      d="M383.123 95.3l-5.592 1.8-.031 5.2z"
      transform="translate(-263.237 -68.224)"
      fill="url(#g)"
    />
    <path d="M119.886 27.076l-5.592 1.8-.031 5.2z" fill="#cc2231" />
    <path
      d="M321.68 17.213l-3.545-4.859 4.217.642-8.129-6.3-7.823 26.438 10.635 1.192-5.226-3.056z"
      transform="translate(-213.865 -6.7)"
      fill="url(#h)"
    />
    <path
      d="M348.345 30.059l3.942-1.681-3.27-2.536-4.217-.642z"
      transform="translate(-240.53 -19.546)"
      fill="url(#i)"
    />
    <path
      d="M107.815 10.513l3.942-1.681-3.27-2.536-4.217-.642z"
      fill="#803f55"
    />
    <path
      d="M340.511 50.085l-6.54-8.985-9.871 14.058 5.226 3.056 11.124 1.253z"
      transform="translate(-226.156 -30.587)"
      fill="url(#j)"
    />
    <path
      d="M340.511 50.085l-6.54-8.985-9.871 14.058 5.226 3.056 11.124 1.253z"
      transform="translate(-226.156 -30.587)"
      fill="url(#k)"
    />
    <path
      d="M360.342 35.6l-3.942 1.681 6.54 8.985-.061 9.382 5.592-1.8 3.729-4.618.4-2.842-5.715-5.715z"
      transform="translate(-248.585 -26.768)"
      fill="url(#l)"
    />
    <path
      d="M360.342 35.6l-3.942 1.681 6.54 8.985-.061 9.382 5.592-1.8 3.729-4.618.4-2.842-5.715-5.715z"
      transform="translate(-248.585 -26.768)"
      fill="url(#m)"
    />
    <path
      d="M360.342 35.6l-3.942 1.681 6.54 8.985-.061 9.382 5.592-1.8 3.729-4.618.4-2.842-5.715-5.715z"
      transform="translate(-248.585 -26.768)"
      fill="url(#n)"
    />

    <path
      fill="#fff"
      d="M114.326 21.606a.241.241 0 00-.245.244.244.244 0 10.489 0 .241.241 0 00-.244-.244zM114.326 22.828c-.122 0-.214.092-.245.244a.241.241 0 00.245.244.236.236 0 00.244-.214.233.233 0 00-.061-.153.221.221 0 00-.183-.121zM114.326 19.161a.241.241 0 00-.245.244.244.244 0 10.245-.244zM114.326 20.383a.236.236 0 00-.245.214.209.209 0 00.214.214c.122 0 .214-.092.244-.244.031-.092-.091-.184-.213-.184zM114.294 24.051a.236.236 0 00-.244.214.244.244 0 00.489 0 .237.237 0 00-.245-.214zM114.263 31.416a.236.236 0 00-.245.214.241.241 0 00.245.244.225.225 0 00.244-.244.259.259 0 00-.244-.214zM114.263 28.971a.236.236 0 00-.245.214.241.241 0 00.245.244.225.225 0 00.244-.244.218.218 0 00-.244-.214zM114.263 30.193a.259.259 0 00-.245.214.244.244 0 10.489 0 .236.236 0 00-.244-.214zM114.294 27.748a.236.236 0 00-.244.214.209.209 0 00.214.214.209.209 0 00.214-.214.233.233 0 00-.061-.153c0-.03-.061-.061-.123-.061zM114.294 25.273c-.122 0-.214.092-.244.244a.241.241 0 00.244.244.236.236 0 00.245-.214.233.233 0 00-.061-.153.221.221 0 00-.184-.121zM114.294 26.526a.241.241 0 00-.244.244.225.225 0 00.244.244.244.244 0 100-.489zM114.263 32.638a.259.259 0 00-.245.214.241.241 0 00.245.244.236.236 0 00.244-.214.233.233 0 00-.061-.153.264.264 0 00-.183-.091zM127.221 23.378a.219.219 0 00-.275.153.2.2 0 000 .183.239.239 0 00.122.122h.061a.23.23 0 00.214-.153.207.207 0 00-.122-.305zM128.383 23.745a.2.2 0 00-.183 0c-.061.031-.092.092-.122.122a.2.2 0 000 .183.239.239 0 00.122.122h.061a.23.23 0 00.214-.153c.031-.061 0-.122 0-.183q-.001-.045-.092-.091zM129.544 24.142a.219.219 0 00-.275.153.2.2 0 000 .183.238.238 0 00.122.122h.061a.23.23 0 00.214-.153.207.207 0 00-.122-.305zM126.061 22.981a.2.2 0 00-.183 0 .239.239 0 00-.122.122.2.2 0 000 .183.239.239 0 00.122.122h.061a.23.23 0 00.214-.153.2.2 0 00-.031-.183c.03-.03 0-.061-.061-.091zM116.739 19.925a.268.268 0 00-.306.153.219.219 0 00.153.275h.061a.23.23 0 00.214-.153.2.2 0 000-.183c-.03-.031-.092-.061-.122-.092zM115.547 19.558a.223.223 0 10-.122.428h.065a.23.23 0 00.214-.153.2.2 0 000-.183.26.26 0 00-.157-.092zM117.901 20.322a.268.268 0 00-.306.153.219.219 0 00.153.275h.061a.23.23 0 00.214-.153.186.186 0 00-.122-.275zM135.381 26.037a.2.2 0 00-.183.031c-.061.031-.092.092-.122.122a.2.2 0 000 .183.239.239 0 00.122.122h.061a.23.23 0 00.214-.153.19.19 0 00-.092-.305zM136.542 26.434c-.061-.031-.122 0-.183 0-.061.031-.092.092-.122.122a.2.2 0 000 .183.239.239 0 00.122.122h.061a.23.23 0 00.214-.153.164.164 0 00-.092-.274zM134.22 25.67a.268.268 0 00-.306.153.219.219 0 00.153.275h.065a.23.23 0 00.214-.153.186.186 0 00-.126-.275zM131.866 24.906a.223.223 0 00-.122.428h.061a.23.23 0 00.214-.153.2.2 0 000-.183.26.26 0 00-.153-.092zM124.868 22.614a.219.219 0 00-.275.153.2.2 0 00.031.183.239.239 0 00.122.122h.061a.23.23 0 00.214-.153.2.2 0 000-.183.2.2 0 00-.153-.122zM130.705 24.509a.2.2 0 00-.183 0 .239.239 0 00-.122.122.219.219 0 00.153.275h.061a.23.23 0 00.214-.153c.031-.061 0-.122 0-.183zM133.058 25.273a.2.2 0 00-.183 0 .238.238 0 00-.122.122.219.219 0 00.153.275h.061a.23.23 0 00.214-.153.2.2 0 000-.183.231.231 0 01-.123-.061zM120.223 21.086a.219.219 0 00-.275.153.268.268 0 00.153.306h.061a.23.23 0 00.214-.153.238.238 0 00-.153-.306zM122.546 21.85a.219.219 0 00-.275.153.2.2 0 000 .183.239.239 0 00.122.122h.061a.23.23 0 00.214-.153.2.2 0 000-.183.131.131 0 00-.122-.122zM121.384 21.453a.2.2 0 00-.183 0c-.061.031-.092.092-.122.122a.2.2 0 000 .183.239.239 0 00.122.122h.061a.23.23 0 00.214-.153c.031-.061 0-.122 0-.183.031-.03-.03-.061-.092-.091zM119.062 20.689c-.061-.031-.122 0-.183 0a.239.239 0 00-.122.122.2.2 0 000 .183.239.239 0 00.122.122h.061a.23.23 0 00.214-.153c.091-.091.03-.213-.092-.274zM123.707 22.217a.2.2 0 00-.183 0 .239.239 0 00-.122.122.219.219 0 00.153.275h.061a.23.23 0 00.214-.153.2.2 0 000-.183zM103.782 4.706a.229.229 0 00-.031-.153.168.168 0 00-.153-.092.229.229 0 00-.153.031.168.168 0 00-.092.153.229.229 0 00.031.153.218.218 0 00.183.092c.061 0 .092-.031.122-.031a.668.668 0 00.093-.153zM102.865 3.453a.388.388 0 00-.183.031.168.168 0 00-.092.153.388.388 0 00.031.183.218.218 0 00.183.092c.061 0 .092-.031.122-.031a.168.168 0 00.092-.153.229.229 0 00-.031-.153c-.03-.091-.061-.122-.122-.122zM104.118 5.47a.168.168 0 00-.092.153.388.388 0 00.031.183.218.218 0 00.183.092c.061 0 .092-.031.122-.031a.271.271 0 00.061-.336c-.061-.122-.183-.122-.305-.061zM101.49 1.895a.243.243 0 00-.275-.4.168.168 0 00-.092.153.387.387 0 00.031.183.218.218 0 00.183.092c.092.003.122.003.153-.028zM112.277 16.319a.388.388 0 00-.183.031.168.168 0 00-.092.153.388.388 0 00.031.183.218.218 0 00.183.092.276.276 0 00.153-.031.168.168 0 00.092-.153.229.229 0 00-.031-.153.537.537 0 00-.153-.122zM111.544 15.341a.388.388 0 00-.183.031.271.271 0 00-.061.336.218.218 0 00.183.092c.061 0 .092 0 .122-.031a.237.237 0 00.061-.306.112.112 0 00-.122-.122zM113.103 17.727a.168.168 0 00.092-.153.229.229 0 00-.031-.153.168.168 0 00-.153-.092.388.388 0 00-.183.031.168.168 0 00-.092.153.387.387 0 00.031.183.218.218 0 00.183.092.233.233 0 00.153-.061zM101.948 2.506a.237.237 0 00-.061.306.218.218 0 00.183.092c.061 0 .092 0 .122-.031a.168.168 0 00.092-.153.229.229 0 00-.031-.153c-.061-.122-.183-.122-.305-.061zM107.296 9.809a.168.168 0 00.092-.153.229.229 0 00-.031-.153.243.243 0 10-.4.275.218.218 0 00.183.092c.064-.03.125-.03.156-.061zM109.558 12.621a.387.387 0 00-.031-.183.279.279 0 00-.336-.061.243.243 0 00-.061.306.218.218 0 00.183.092c.061 0 .092-.031.122-.031a.112.112 0 00.123-.123zM108.64 11.368a.229.229 0 00-.153.031.168.168 0 00-.092.153.388.388 0 00.031.183.218.218 0 00.183.092c.061 0 .092-.031.122-.031a.168.168 0 00.092-.153.387.387 0 00-.031-.183.168.168 0 00-.152-.092zM106.288 8.435a.168.168 0 00-.092.153.388.388 0 00.031.183.218.218 0 00.183.092c.061 0 .092 0 .122-.031a.243.243 0 00.061-.306.205.205 0 00-.305-.091zM104.852 6.479a.243.243 0 00-.061.306.218.218 0 00.183.092c.061 0 .092-.031.122-.031a.168.168 0 00.092-.153.387.387 0 00-.031-.183.2.2 0 00-.305-.031zM107.938 10.39a.388.388 0 00-.183.031.168.168 0 00-.092.153.387.387 0 00.031.183.218.218 0 00.183.092c.061 0 .092-.031.122-.031a.168.168 0 00.092-.153.229.229 0 00-.031-.153c-.03-.091-.061-.122-.122-.122zM109.925 13.385a.243.243 0 00-.061.306.218.218 0 00.183.092c.061 0 .092-.031.122-.031a.168.168 0 00.092-.153.388.388 0 00-.031-.183.275.275 0 00-.305-.031zM110.594 14.699a.218.218 0 00.183.092c.061 0 .092 0 .122-.031a.243.243 0 00.061-.306.168.168 0 00-.153-.092.388.388 0 00-.183.031.232.232 0 00-.031.306zM100.695.489a.388.388 0 00-.183.031.243.243 0 00-.061.306.264.264 0 00.183.092.184.184 0 00.122-.031.168.168 0 00.092-.153.388.388 0 00-.031-.183.159.159 0 00-.122-.062zM105.89 7.518a.271.271 0 00-.336-.061.237.237 0 00-.061.306.218.218 0 00.183.092.184.184 0 00.122-.031.168.168 0 00.092-.153.1.1 0 000-.153zM123.524 6.204a.209.209 0 00.061.306.184.184 0 00.122.031.218.218 0 00.183-.092.22.22 0 00-.367-.244zM120.651 10.177a.209.209 0 00.061.306.184.184 0 00.122.031.218.218 0 00.183-.092.209.209 0 00-.061-.306.243.243 0 00-.305.061zM121.385 9.198a.209.209 0 00.061.306.184.184 0 00.122.031.218.218 0 00.183-.092.222.222 0 10-.367-.244zM120.009 11.491a.184.184 0 00.122.031.218.218 0 00.183-.092.2.2 0 00.031-.183.168.168 0 00-.092-.153c-.061-.031-.122-.061-.153-.031a.168.168 0 00-.153.092.2.2 0 00-.031.183.141.141 0 00.092.153zM119.213 12.194a.2.2 0 00-.031.183.168.168 0 00.092.153.184.184 0 00.122.031.218.218 0 00.183-.092.209.209 0 00-.061-.306c-.059-.123-.212-.092-.305.031zM126.03 3.483a.209.209 0 00-.061-.306.2.2 0 00-.183-.031.168.168 0 00-.153.092.2.2 0 00-.031.183.168.168 0 00.092.153.232.232 0 00.122.061c.121-.059.183-.09.214-.152zM124.562 5.165a.209.209 0 00-.306.061.2.2 0 00-.031.183.168.168 0 00.092.153.229.229 0 00.153.031.218.218 0 00.183-.092.326.326 0 00-.091-.336zM122.455 8.465a.209.209 0 00-.061-.306.2.2 0 00-.183-.031.168.168 0 00-.153.092.2.2 0 00-.031.183.168.168 0 00.092.153.184.184 0 00.122.031c.121-.029.182-.06.214-.122zM125.113 4.126a.168.168 0 00-.153.092.2.2 0 00-.031.183.168.168 0 00.092.153.184.184 0 00.122.031.218.218 0 00.183-.092.209.209 0 00-.061-.306.112.112 0 00-.152-.061zM118.817 13.108a.2.2 0 00-.183-.031.168.168 0 00-.153.092.2.2 0 00-.031.183.168.168 0 00.092.153.184.184 0 00.122.031.218.218 0 00.183-.092.2.2 0 00-.03-.336zM122.79 7.182a.209.209 0 00.061.306.184.184 0 00.122.031.218.218 0 00.183-.092.209.209 0 00-.061-.306c-.061-.061-.214-.028-.305.061zM115.334 18.245a.168.168 0 00-.092-.153.2.2 0 00-.183-.031.168.168 0 00-.153.092c-.031.061-.061.092-.031.153a.168.168 0 00.092.153.232.232 0 00.122.061.218.218 0 00.183-.092c.062-.061.092-.122.062-.183zM117.229 15.066a.168.168 0 00-.153.092c-.031.061-.061.122-.031.153a.168.168 0 00.092.153.184.184 0 00.122.031.218.218 0 00.183-.092.2.2 0 00.031-.183.168.168 0 00-.092-.153zM113.561 18.336a.168.168 0 00-.092.153.387.387 0 00.031.183.218.218 0 00.183.092c.061 0 .092-.031.122-.031a.271.271 0 00.061-.336.243.243 0 00-.305-.061zM116.74 16.441c.031-.061.061-.092.031-.153a.168.168 0 00-.092-.153.209.209 0 00-.306.061.2.2 0 00-.031.183.168.168 0 00.092.153.184.184 0 00.122.031c.061-.03.153-.061.184-.122zM115.639 17.175a.209.209 0 00.061.306.234.234 0 00.153.061.218.218 0 00.183-.092.2.2 0 00.031-.183c-.031-.061-.031-.122-.092-.153a.221.221 0 00-.336.061zM117.809 14.18a.249.249 0 00.061.336.184.184 0 00.122.031.218.218 0 00.183-.092.249.249 0 00-.061-.336.209.209 0 00-.305.061zM97.884 24.387a.219.219 0 00-.153.275.23.23 0 00.214.153h.061a.239.239 0 00.122-.122.387.387 0 00.031-.183.2.2 0 00-.275-.123zM94.369 25.487c-.061.031-.122.061-.122.122a.2.2 0 000 .183.23.23 0 00.214.153h.092a.219.219 0 00.153-.275.277.277 0 00-.337-.183zM93.392 25.884a.2.2 0 00-.183 0c-.061.031-.122.061-.122.122a.2.2 0 000 .183.23.23 0 00.214.153h.061a.239.239 0 00.122-.122.388.388 0 00.031-.183.215.215 0 00-.123-.153zM101.582 23.287a.2.2 0 00-.183 0 .239.239 0 00-.122.122.2.2 0 000 .183.23.23 0 00.214.153h.061a.239.239 0 00.122-.122.2.2 0 000-.183.141.141 0 00-.092-.153zM99.045 24.02a.232.232 0 00-.153.275.23.23 0 00.214.153h.061a.232.232 0 00.153-.275.18.18 0 00-.275-.153zM95.744 25.151a.388.388 0 00-.183-.031.219.219 0 00-.153.275.23.23 0 00.214.153h.061c.061-.031.122-.061.122-.122a.2.2 0 000-.183c.031-.031-.03-.062-.061-.092zM96.905 24.754a.2.2 0 00-.183 0 .219.219 0 00-.153.275.23.23 0 00.214.153h.061c.061-.031.122-.061.122-.122a.2.2 0 000-.183c.031-.031.001-.093-.061-.123zM100.237 23.623a.239.239 0 00-.122.122.2.2 0 000 .183.23.23 0 00.214.153h.061a.219.219 0 00.153-.275.259.259 0 00-.306-.183zM109.772 20.659a.2.2 0 00-.183 0c-.061.031-.122.061-.122.122a.387.387 0 00-.031.183.23.23 0 00.214.153h.061a.239.239 0 00.122-.122.2.2 0 000-.183c.031-.061-.03-.123-.061-.153zM108.579 21.056a.388.388 0 00-.183-.031.219.219 0 00-.153.275.23.23 0 00.214.153h.061c.061-.031.122-.061.122-.122a.2.2 0 000-.183c.031-.031.001-.062-.061-.092zM110.75 20.292a.239.239 0 00-.122.122.388.388 0 00-.031.183.23.23 0 00.214.153h.061a.252.252 0 00.153-.306.219.219 0 00-.275-.152zM113.255 19.559a.388.388 0 00-.183-.031.232.232 0 00-.153.275.23.23 0 00.214.153h.061c.061-.031.122-.061.122-.122a.387.387 0 00.031-.183.228.228 0 00-.092-.092zM111.911 19.925a.232.232 0 00-.153.275.23.23 0 00.214.153h.061a.232.232 0 00.153-.275.2.2 0 00-.275-.153zM102.559 22.889a.219.219 0 00-.153.275.23.23 0 00.214.153h.061c.061-.031.122-.061.122-.122a.2.2 0 000-.183c.031-.093-.122-.154-.244-.123zM103.904 22.523a.388.388 0 00-.183-.031.219.219 0 00-.153.275.23.23 0 00.214.153h.061c.061-.031.122-.061.122-.122a.136.136 0 000-.153c.031-.031.001-.092-.061-.122zM104.913 22.156a.219.219 0 00-.153.275.23.23 0 00.214.153h.061a.239.239 0 00.122-.122.388.388 0 00.031-.183.2.2 0 00-.275-.123zM106.257 21.789a.2.2 0 00-.183 0 .238.238 0 00-.122.122.2.2 0 000 .183.23.23 0 00.214.153h.061a.239.239 0 00.122-.122.387.387 0 00.031-.183.215.215 0 00-.123-.153zM107.235 21.392c-.061.031-.122.061-.122.122a.2.2 0 000 .183.23.23 0 00.214.153h.092a.219.219 0 00.153-.275.292.292 0 00-.337-.183z"
    />
  </svg>
